<?xml version="1.0" encoding="UTF-8" standalone="no"?>
<!-- Created with Inkscape (http://www.inkscape.org/) -->

<svg
   version="1.1"
   id="svg18"
   width="1000"
   height="1000"
   viewBox="0 0 1000 1000"
   sodipodi:docname="MTlogoNew.svg"
   inkscape:version="1.2.2 (b0a8486541, 2022-12-01)"
   xmlns:inkscape="http://www.inkscape.org/namespaces/inkscape"
   xmlns:sodipodi="http://sodipodi.sourceforge.net/DTD/sodipodi-0.dtd"
   xmlns="http://www.w3.org/2000/svg"
   xmlns:svg="http://www.w3.org/2000/svg">
  <defs
     id="defs22">
    <clipPath
       clipPathUnits="userSpaceOnUse"
       id="clipPath34">
      <path
         d="M 0,500 H 500 V 0 H 0 Z"
         id="path32" />
    </clipPath>
  </defs>
  <sodipodi:namedview
     id="namedview20"
     pagecolor="#ffffff"
     bordercolor="#000000"
     borderopacity="0.25"
     inkscape:showpageshadow="2"
     inkscape:pageopacity="0.0"
     inkscape:pagecheckerboard="0"
     inkscape:deskcolor="#d1d1d1"
     showgrid="true"
     showguides="true"
     inkscape:zoom="2.6495372"
     inkscape:cx="398.18274"
     inkscape:cy="450.26731"
     inkscape:window-width="2559"
     inkscape:window-height="1370"
     inkscape:window-x="1280"
     inkscape:window-y="32"
     inkscape:window-maximized="0"
     inkscape:current-layer="svg18">
    <inkscape:page
       x="0"
       y="0"
       id="page24"
       width="1000"
       height="1000" />
  </sodipodi:namedview>
  <g
     id="g26"
     inkscape:groupmode="layer"
     inkscape:label="Page 1"
     transform="matrix(1.3333333,0,0,-1.3333333,0,666.66667)">
    <g
       id="g28"
       transform="translate(125.0001,-124.99979)">
      <g
         id="g30"
         clip-path="url(#clipPath34)">
        <g
           id="g36"
           transform="translate(201.9468,277.7578)">
          <path
             id="path38"
             style="fill:#b31b1b;fill-opacity:1;fill-rule:nonzero;stroke:none"
             d="m 24.804574,194.22149 c -23.6959767,0.057 -46.800049,-7.41207 -65.978029,-21.33105 -19.177981,-13.91999 -33.439989,-33.57019 -40.729982,-56.11817 -15.436984,-3.15999 -30.019913,-9.58197 -42.774903,-18.834959 -12.75499,-9.25199 -23.38614,-21.122421 -31.18213,-34.816407 -11.89699,-20.500979 -16.97395,-44.248756 -14.50195,-67.823732 2.47299,-23.572976 12.36824,-45.750933 28.26123,-63.336916 -4.976,-14.944985 -6.70297,-30.780282 -5.06397,-46.447266 1.64,-15.66598 6.60735,-30.80157 14.56934,-44.39356 11.80399,-20.55698 29.83235,-36.83057 51.486328,-46.47656 21.651979,-9.64699 45.811307,-12.16438 68.988283,-7.19238 10.45399,-11.78099 23.305445,-21.19246 37.690431,-27.60645 14.386986,-6.41299 29.975579,-9.68054 45.726564,-9.58154 23.707976,-0.062 46.824814,7.41086 66.008794,21.33984 19.18698,13.92699 33.45084,33.59135 40.73584,56.15332 15.43598,3.16 30.01991,9.58097 42.7749,18.83497 12.75399,9.25199 23.38467,21.12242 31.18067,34.8164 11.88198,20.498982 16.94972,44.242645 14.46972,67.807621 -2.478,23.563977 -12.37617,45.7311015 -28.26416,63.309084 4.976,14.945985 6.70396,30.781282 5.06397,46.447267 -1.64,15.666984 -6.60588,30.802569 -14.56787,44.393558 -11.80299,20.55698 -29.83236,36.8335 -51.48633,46.47949 -21.65298,9.64599 -45.81078,12.16345 -68.98975,7.18945 -10.453992,11.78099 -23.302982,21.19392 -37.688968,27.60791 -14.386985,6.413 -29.977044,9.67908 -45.728028,9.58008 z m -1.13086,-29.03174 c 3.921653,0.0538 7.856383,-0.17029 11.775879,-0.67529 15.677985,-2.021 30.456529,-8.46609 42.603517,-18.58008 -0.673999,-0.368 -1.846466,-1.01381 -2.626465,-1.48681 L -12.969353,93.387506 c -2.218998,-1.261998 -4.061357,-3.089807 -5.339356,-5.299804 -1.275998,-2.207998 -1.939804,-4.718558 -1.924804,-7.268555 l -0.06152,-124.58057 -37.372559,21.57422 c -0.196,0.098 -0.366188,0.24241 -0.492188,0.42041 -0.127,0.179 -0.208375,0.386516 -0.234375,0.603515 V 82.043756 c 0.01,15.806984 4.522286,31.284624 13.009278,44.620604 8.487991,13.33599 20.597101,23.97816 34.913087,30.68116 10.73698883,5.02799 22.380551,7.68298 34.145508,7.84423 z M 129.13368,130.39386 c 1.96576,0.0554 3.93714,0.0421 5.91064,-0.0425 15.78899,-0.67899 31.0575,-5.83896 44.02149,-14.87695 12.96298,-9.03799 23.08369,-21.581147 29.17969,-36.161133 6.09499,-14.579985 7.91374,-30.593962 5.23974,-46.168946 -0.655,0.402999 -1.802,1.095383 -2.625,1.567383 l -88.39893,51.06006 c -2.20299,1.285998 -4.70876,1.964355 -7.25976,1.964355 -2.551,0 -5.05677,-0.678357 -7.25977,-1.964355 L -1.071559,23.233007 0.01795192,66.604303 c -0.01199998,0.220999 0.03004698,0.440137 0.12304688,0.640136 0.0929999,0.199 0.23462128,0.374836 0.41162111,0.506836 L 89.912485,119.30206 c 11.977865,6.90724 25.460865,10.70394 39.221195,11.0918 z M -87.374628,85.090631 c 0,-0.761999 -0.04248,-2.110876 -0.04248,-3.046875 v -102.12012 c -0.016,-2.550997 0.648806,-5.060021 1.924805,-7.270019 1.274999,-2.208998 3.114569,-4.037806 5.330566,-5.299805 L 27.762093,-94.953319 -9.6016772,-116.52754 c -0.1839998,-0.122 -0.3947698,-0.19487 -0.6137698,-0.21387 -0.22,-0.021 -0.442996,0.0136 -0.645996,0.0996 l -89.368657,51.638678 c -19.08098,11.049988 -33.0005,29.215694 -38.70849,50.513673 -5.708,21.2969783 -2.7382,43.98863 8.25878,63.099611 9.706,16.866983 25.0362,29.779476 43.305182,36.480469 z M -20.240268,72.995025 -0.27515526,55.095602 -1.0733567,23.230278 -20.249877,40.951228 Z M 106.35243,61.270806 c 0.221,0.02 0.44053,-0.01507 0.64453,-0.101074 L 196.36561,9.5750044 c 13.69199,-7.9089921 24.84666,-19.5542336 32.16065,-33.5742194 7.31099,-14.018986 10.47837,-29.82949 9.13037,-45.584474 -1.349,-15.753984 -7.15957,-30.797641 -16.74756,-43.369631 -9.58999,-12.57199 -22.56341,-22.1507 -37.40039,-27.6167 v 3.0542 102.121585 c 0.021,2.545997 -0.6363,5.052233 -1.9043,7.261231 -1.268,2.208997 -3.09813,4.040595 -5.30713,5.308593 L 68.373422,39.490044 105.73719,61.055474 c 0.183,0.121 0.39524,0.195332 0.61524,0.215332 z M 48.067758,27.762505 96.133677,0.01836351 V -55.488962 L 48.067758,-83.234568 3.7379868e-4,-55.488962 V -6.7946232e-4 Z M 116.3617,-11.710641 153.72548,-33.28486 c 0.195,-0.098 0.36418,-0.24141 0.49218,-0.42041 0.127,-0.179 0.20538,-0.386516 0.23438,-0.603516 V -137.51582 c -0.029,-22.04398 -8.79162,-43.17701 -24.37061,-58.771 -15.58098,-15.59598 -36.706045,-24.37973 -58.749023,-24.42773 -19.461981,-0.028 -38.313806,6.78838 -53.258791,19.25537 0.674,0.367 1.856466,1.01582 2.626465,1.48682 l 88.397459,51.06152 c 2.219,1.263 4.0619,3.0932 5.3379,5.3042 1.27699,2.211 1.94126,4.72095 1.92626,7.27295 z M 96.117564,-78.927928 v -43.148442 c 0.012,-0.22 -0.03005,-0.44113 -0.123047,-0.64013 -0.093,-0.2 -0.234157,-0.37484 -0.410156,-0.50684 L 6.224495,-174.8166 c -19.113981,-11.00899 -41.815605,-13.98583 -63.121584,-8.27783 -21.305978,5.70799 -39.478332,19.63709 -50.528321,38.72607 -9.74799,16.84398 -13.26131,36.57797 -9.92432,55.751956 0.657,-0.394 1.802,-1.094384 2.625,-1.567383 l 88.397466,-51.058593 c 2.202998,-1.288 4.709234,-1.96729 7.261231,-1.96729 2.550998,0 5.056768,0.67929 7.259766,1.96729 z"
             sodipodi:nodetypes="cccccccccccccccccccscccccscccccccccccccssccccccsccccccsccccccccccccccccccsccccccccscccsccccccccccccsccccccccccccsccccscccc" />
        </g>
      </g>
    </g>
    <circle
       id="path2422"
       style="fill:#000000;stroke:#000000;stroke-width:0.75"
       cx="299.86172"
       cy="-229.71236"
       r="3.7292361e-06"
       transform="scale(1,-1)" />
    <path
       style="fill:#ffffff;fill-opacity:1;stroke:#ffffff;stroke-width:0.075;stroke-dasharray:none;stroke-opacity:1"
       d="m 297.97119,230.32476 7.49135,-5.81723 0.90358,-0.37129 1.25223,-1.0769 2.26064,-2.55444 2.5429,-1.98524 0.69627,-0.65014 12.05918,-9.93147 1.60501,-1.38352 2.12823,-2.03489 0.92543,-0.6548 -0.25354,-25.36204 -2.02522,-1.06715 -0.8618,-0.9353 -0.82012,-0.46608 -0.21908,0.21791 c -6.15053,5.99324 -11.91503,11.62323 -18.06557,17.70258 -0.44586,0.4407 -1.00657,1.01003 -1.45244,1.45288 z"
       id="path2424"
       sodipodi:nodetypes="ccccccccccccccccscc" />
    <path
       style="fill:#ffffff;fill-opacity:1;stroke:#ffffff;stroke-width:0.3;stroke-dasharray:none;stroke-opacity:1"
       d="m 239.12327,-12.440216 -23.51608,-23.434688 9.52784,-8.352488 29.64781,25.582876 z"
       id="path2606" />
  </g>
  <g
     inkscape:groupmode="layer"
     id="layer1"
     inkscape:label="arxiv1Right">
    <path
       id="path855"
       style="fill:#000000"
       d="M 899.99805 99.996094 L 500.04297 444.76758 L 500.43945 445.08398 L 529.69727 470.29883 L 899.99805 99.996094 z M 470.06641 470.60742 L 435.95117 500.01562 L 900.00781 899.94141 L 501.66406 501.59766 L 500.73047 502.51172 L 470.06641 470.60742 z " />
    <rect
       style="fill:none;fill-opacity:1;stroke:#000000;stroke-width:2.00815;stroke-dasharray:none;stroke-opacity:1"
       id="rect2287"
       width="47.062263"
       height="8.7194576"
       x="701.00549"
       y="10.648534"
       transform="matrix(0.71801693,0.69602564,-0.70010073,0.7140441,0,0)" />
    <path
       style="fill:none;fill-opacity:1;stroke:#000000;stroke-width:2.8;stroke-dasharray:none;stroke-opacity:1"
       id="path2289"
       d="m 499.85254,501.0196 c 0.35037,0.2244 0.6661,0.4931 0.97301,0.77252 0.18646,0.20291 0.43945,0.37335 0.52731,0.64541 0.0411,0.19645 -0.0818,0.30122 -0.21492,0.42351 0,0 8.4e-4,5.2e-4 8.4e-4,5.2e-4 v 0 c 0.13313,-0.12232 0.25603,-0.22712 0.21498,-0.42361 -0.0878,-0.27209 -0.34083,-0.44254 -0.5273,-0.64546 -0.30691,-0.27942 -0.62263,-0.54813 -0.97299,-0.77253 0,0 -9.3e-4,-3.6e-4 -9.3e-4,-3.6e-4 z" />
  </g>
  <g
     inkscape:groupmode="layer"
     id="layer2"
     inkscape:label="arxiv2Left">
    <path
       style="fill:none;stroke:#000000;stroke-opacity:1;stroke-width:2.8;stroke-dasharray:none;fill-opacity:1"
       d="M 564.09524,500.02341 100.00325,100.00024 500.00279,499.99977 100.02362,899.97895 Z"
       id="path858" />
  </g>
  <path
     style="fill:#b31b1b;fill-opacity:1;stroke:none;stroke-width:0.3;stroke-dasharray:none;stroke-opacity:1"
     d="m 246.62522,273.89715 2.44775,6.1194 23.8459,-18.51611 -1.22388,-3.98747 -0.86855,-3.43475 -3.11892,-1.93452 z"
     id="path3388"
     transform="matrix(1.3333333,0,0,-1.3333333,0,666.66667)" />
</svg>
