<?xml version="1.0" encoding="UTF-8"?>
<svg width="1200pt" height="1200pt" version="1.1" viewBox="0 0 1200 1200" xmlns="http://www.w3.org/2000/svg">
 <path d="m1137.5 627.56c-15.191 0-27.539-12.348-27.539-27.539 0-15.227 12.348-27.539 27.539-27.539h22.789c15.227 0 27.539 12.348 27.539 27.539 0 15.227-12.348 27.539-27.539 27.539zm-537.48-226.26c-15.227 0-27.539-12.348-27.539-27.539 0-15.227 12.348-27.539 27.539-27.539 70.059 0 133.52 28.402 179.46 74.34s74.34 109.41 74.34 179.46c0 15.227-12.348 27.539-27.539 27.539-15.227 0-27.539-12.348-27.539-27.539 0-54.863-22.25-104.55-58.211-140.51-35.965-35.965-85.645-58.211-140.51-58.211zm-388.73 548.46c10.766-10.766 28.188-10.766 38.953 0s10.766 28.188 0 38.953l-71.605 71.641c-10.766 10.766-28.188 10.766-38.953 0-10.766-10.766-10.766-28.188 0-38.953l71.641-71.641zm738.55 38.953c-10.766-10.766-10.766-28.188 0-38.953s28.188-10.766 38.953 0l71.641 71.641c10.766 10.766 10.766 28.188 0 38.953s-28.188 10.766-38.953 0zm38.953-738.55c-10.766 10.766-28.188 10.766-38.953 0s-10.766-28.188 0-38.953l71.641-71.641c10.766-10.766 28.188-10.766 38.953 0s10.766 28.188 0 38.953l-71.641 71.605zm-738.55-38.953c10.766 10.766 10.766 28.188 0 38.953s-28.188 10.766-38.953 0l-71.641-71.605c-10.766-10.766-10.766-28.188 0-38.953s28.188-10.766 38.953 0l71.605 71.641zm377.36-148.72c0 15.227-12.348 27.539-27.539 27.539-15.227 0-27.539-12.348-27.539-27.539v-22.754c0-15.227 12.348-27.539 27.539-27.539 15.191 0 27.539 12.348 27.539 27.539zm-27.539 115.85c116.43 0 221.84 47.195 298.12 123.48 76.32 76.32 123.52 181.73 123.52 298.16s-47.195 221.84-123.52 298.16c-76.285 76.285-181.73 123.48-298.12 123.48-116.43 0-221.84-47.195-298.16-123.52-76.285-76.285-123.48-181.7-123.48-298.12 0-116.43 47.195-221.84 123.48-298.16 76.32-76.285 181.73-123.48 298.16-123.48zm259.2 162.47c-66.348-66.348-157.97-107.35-259.2-107.35-101.23 0-192.86 41.004-259.2 107.35-66.348 66.348-107.35 157.97-107.35 259.2s41.004 192.86 107.35 259.2c66.348 66.312 157.97 107.35 259.2 107.35 101.2 0 192.86-41.039 259.2-107.35 66.312-66.348 107.35-157.97 107.35-259.2s-41.039-192.86-107.35-259.2zm-796.69 231.62c15.227 0 27.539 12.348 27.539 27.539 0 15.227-12.348 27.539-27.539 27.539h-22.754c-15.227 0-27.539-12.348-27.539-27.539 0-15.227 12.348-27.539 27.539-27.539zm509.95 565.03c0-15.191 12.348-27.539 27.539-27.539 15.191 0 27.539 12.348 27.539 27.539v22.789c0 15.227-12.348 27.539-27.539 27.539-15.227 0-27.539-12.348-27.539-27.539z"/>
</svg>
