<?xml version="1.0" encoding="UTF-8"?>
<svg width="1200pt" height="1200pt" version="1.1" viewBox="0 0 1200 1200" xmlns="http://www.w3.org/2000/svg">
 <g>
  <path d="m759.6 826.8c-8.3984-9.6016-22.801-10.801-32.398-1.1992-1.1992 1.1992-117.6 103.2-310.8 94.801-108-6.0039-247.2-80.402-315.6-273.6-4.8008-12-18-18-30-14.398-12 4.8008-18 18-14.398 30 77.996 214.8 235.2 297.6 357.6 302.4h25.199c198 0 313.2-102 319.2-106.8 8.4023-7.1992 9.6016-21.602 1.2031-31.199z"/>
  <path d="m199.2 663.6c4.8008 0 9.6016-1.1992 13.199-3.6016 10.801-7.1992 13.199-21.602 6-32.398-1.1992-1.1992-100.8-151.2-8.3984-352.8 4.8008-12 0-25.199-10.801-30-12-4.8008-25.199 0-30 10.801-104.4 226.8 7.1992 391.2 12 398.4 2.4023 6 9.6016 9.6016 18 9.6016z"/>
  <path d="m76.801 600c3.5977-3.6016 7.1992-9.6016 7.1992-15.602s-2.3984-12-7.1992-16.801c-4.8008-4.7969-10.801-7.1992-16.801-7.1992s-12 2.3984-16.801 7.1992c-4.8008 4.8008-7.1992 10.801-7.1992 16.801s2.3984 12 7.1992 16.801c4.8008 3.6016 10.801 6 16.801 6s12-2.3984 16.801-7.1992z"/>
  <path d="m212.4 220.8c6 0 12-2.3984 16.801-7.1992 4.8008-4.8008 7.1992-10.801 7.1992-16.801s-2.3984-12-7.1992-16.801-10.801-7.1992-16.801-7.1992-12 2.3984-16.801 7.1992c-4.8008 4.8008-7.1992 10.801-7.1992 16.801s2.3984 12 7.1992 16.801c4.8008 4.7969 10.801 7.1992 16.801 7.1992z"/>
  <path d="m930 834c51.602-99.602 32.398-192 7.1992-252-32.398-78-88.801-135.6-130.8-163.2-43.199-27.602-135.6-66-213.6-32.398-51.602 22.801-85.199 56.398-99.602 99.602-21.602 67.199 12 132 22.801 151.2 13.199 22.801 34.801 39.602 60 48-1.1992 0-3.6016 1.1992-4.8008 1.1992-31.199 6-64.801-3.6016-99.602-28.801-45.602-33.602-63.602-106.8-60-160.8 4.8008-81.602 75.602-262.8 253.2-271.2 13.199 0 22.801-10.801 21.602-24 0-13.199-12-22.801-24-21.602-111.6 4.8008-182.4 68.398-222 120-51.602 67.199-72 145.2-75.602 194.4-2.3984 51.602 10.801 151.2 79.199 200.4 36 26.398 72 39.602 106.8 39.602 9.6016 0 19.199-1.1992 28.801-3.6016 68.398-14.398 109.2-75.602 120-94.801 13.199-22.801 16.801-50.398 10.801-75.602l3.6016 3.6016c21.602 24 30 57.602 25.199 99.602-6 56.398-61.199 108-109.2 132-73.199 37.199-265.2 66-361.2-84-7.1992-10.801-21.602-14.398-32.398-7.1992-10.801 7.1992-14.398 21.602-7.1992 32.398 61.199 94.801 150 123.6 214.8 132 15.602 2.3984 31.199 2.3984 46.801 2.3984 64.801 0 123.6-16.801 159.6-34.801 45.602-22.801 124.8-84 134.4-169.2 6-56.398-6-102-36-135.6-46.801-51.602-120-56.398-141.6-56.398-18 0-37.199 4.8008-52.801 14.398-7.1992 3.6016-13.199 8.3984-19.199 14.398 0-1.1992 1.1992-3.6016 1.1992-4.8008 9.6016-30 34.801-54 74.398-72 51.602-22.801 124.8-1.1992 169.2 28.801 68.398 44.398 189.6 196.8 108 355.2-6 10.801-1.1992 25.199 9.6016 31.199 3.6016 1.1992 7.1992 2.3984 10.801 2.3984 9.6016 1.2109 18-2.3906 21.602-10.789zm-352.8-302.4c9.6016-4.8008 19.199-8.3984 30-8.3984 21.602 0 42 12 52.801 30 16.801 28.801 7.1992 66-21.602 82.801-9.6016 4.8008-19.199 8.3984-30 8.3984-21.602 0-42-12-52.801-30-16.797-28.801-7.1992-66.004 21.602-82.801z"/>
  <path d="m771.6 316.8c-12-3.6016-25.199 2.3984-28.801 14.398-3.6016 12 2.3984 25.199 14.398 28.801 1.1992 0 148.8 50.398 237.6 222 49.199 94.801 55.199 252-78 409.2-8.3984 9.6016-7.1992 24 2.3984 32.398 4.8008 3.6016 9.6016 6 14.398 6 6 0 13.199-2.3984 18-8.3984 147.6-174 140.4-351.6 84-459.6-98.398-189.6-258-242.4-264-244.8z"/>
  <path d="m871.2 889.2c-12-6-25.199-1.1992-31.199 10.801-3.6016 7.1992-81.602 163.2-302.4 183.6-13.199 1.1992-21.602 12-20.398 25.199 1.1992 12 10.801 20.398 22.801 20.398h2.3984c248.4-22.801 336-202.8 339.6-210 5.9961-10.801 1.1953-25.199-10.805-30z"/>
  <path d="m882 1034.4c-6 0-12 2.3984-16.801 7.1992-4.8008 4.8008-7.1992 10.801-7.1992 16.801s2.3984 12 7.1992 16.801 10.801 7.1992 16.801 7.1992 12-2.3984 16.801-7.1992 7.1992-10.801 7.1992-16.801-2.3984-12-7.1992-16.801c-4.8008-3.5977-10.801-7.1992-16.801-7.1992z"/>
  <path d="m471.6 1095.6c-6 0-12 2.3984-16.801 7.1992s-7.1992 10.801-7.1992 16.801 2.3984 12 7.1992 16.801c4.8008 4.8008 10.801 7.1992 16.801 7.1992s12-2.3984 16.801-7.1992c4.8008-4.8008 7.1992-10.801 7.1992-16.801s-2.3984-12-7.1992-16.801c-4.8008-4.8008-10.801-7.1992-16.801-7.1992z"/>
  <path d="m316.8 594h4.8008c12-2.3984 20.398-14.398 18-27.602 0-1.1992-30-153.6 74.398-316.8 57.602-90 190.8-174 393.6-136.8 12 2.3984 24-6 26.398-18s-6-24-18-26.398c-224.4-40.801-374.4 54-440.4 157.2-114 180-81.602 344.4-80.398 351.6 1.1953 9.6016 10.797 16.801 21.598 16.801z"/>
  <path d="m1112.4 367.2c-144-202.8-343.2-189.6-351.6-188.4-13.199 1.1992-21.602 12-21.602 25.199 1.1992 13.199 12 22.801 25.199 21.602 2.3984 0 181.2-12 309.6 169.2 4.8008 6 12 9.6016 19.199 9.6016 4.8008 0 9.6016-1.1992 13.199-4.8008 10.805-8.4023 13.207-22.801 6.0039-32.402z"/>
  <path d="m882 133.2c6 0 12-2.3984 16.801-7.1992s7.1992-10.801 7.1992-16.801-2.3984-12-7.1992-16.801c-4.8008-4.8008-10.801-7.1992-16.801-7.1992s-12 2.3984-16.801 7.1992c-4.8008 4.8008-7.1992 9.6016-7.1992 16.801s2.3984 12 7.1992 16.801 10.801 7.1992 16.801 7.1992z"/>
  <path d="m1155.6 418.8c-4.8008-4.8008-10.801-7.1992-16.801-7.1992s-12 2.3984-16.801 7.1992-7.1992 10.801-7.1992 16.801 2.3984 12 7.1992 16.801c4.8008 4.8008 10.801 7.1992 16.801 7.1992s12-2.3984 16.801-7.1992c4.8008-4.8008 7.1992-10.801 7.1992-16.801 0-7.2031-2.4023-13.203-7.1992-16.801z"/>
 </g>
</svg>
