<?xml version="1.0" encoding="UTF-8"?>
<svg width="1200pt" height="1200pt" version="1.1" viewBox="0 0 1200 1200" xmlns="http://www.w3.org/2000/svg">
 <path d="m600 30c314.4 0 570 255.6 570 570s-255.6 570-570 570-570-255.6-570-570 255.6-570 570-570zm82.801 526.8c22.801-40.801 156-368.4 199.2-309.6 19.199 26.398-184.8 380.4-190.8 450 3.6016 103.2 9.6016 297.6-69.602 308.4-99.602 14.398-63.602-141.6 4.8008-315.6-6-646.8-200.4-292.8-213.6-290.4-195.6 40.801 200.4-516 270 157.2z" fill-rule="evenodd"/>
</svg>
