<?xml version="1.0" encoding="UTF-8"?>
<svg width="1200pt" height="1200pt" version="1.1" viewBox="0 0 1200 1200" xmlns="http://www.w3.org/2000/svg">
 <path d="m1200 135.3c0 20.812-5.25 41.043-14.418 59.383l-177.64-177.62c18.336-9.1484 38.586-14.418 59.383-14.418 73.18 0.015624 132.67 59.508 132.67 132.65zm-226.73-96.34 190.43 190.43-58.988 58.988-190.42-190.41zm16.312 417.09c-186.71-104.32-226.57-251.75-234.99-306.6 0.88281 5.7383 46.648 28.031 53.512 32.961 69.898 50.438 124.67 121.84 157.5 201.38 9.7148 23.512 17.793 47.57 23.98 72.262zm-277.2-325.54c0.9375 21.242 17.27 241.93 287.21 376.01 3.6172 24.789 5.5703 50.156 5.5703 76.051 0 23.531-1.6133 47.418-4.7812 71.023-0.11328 0.88281-0.16797 38.23-0.16797 38.23-429.09-48.391-538.84-475.91-557.48-567.71 39.898-13.219 82.164-20.398 125.93-20.398 50.344 0 98.684 9.5039 143.72 26.793zm424.99 1066.8h-1137.4v-204.43h276.58c84.055 71.023 184.88 108.52 292.09 108.52 107.23 0 208.09-37.5 292.14-108.52h276.56zm-793.59-204.43h449.83c-67.574 44.758-144.23 68.512-224.95 68.512-80.699 0-157.33-23.773-224.89-68.512zm-206.59-40.145v-296.18c0-0.89844-0.054687-1.7812-0.1875-2.6797-3.207-23.664-4.8203-47.664-4.8203-71.344 0-200.53 113.01-372.58 272.79-443.76 24.207 112.35 146.4 545.68 595.22 593.36v220.59zm847.46-622.8c-24.957-48.562-56.832-92.344-94.219-129.7l34.801-34.801 111.98 111.96z"/>
</svg>
