<?xml version="1.0" encoding="UTF-8"?>
<svg width="1200pt" height="1200pt" version="1.1" viewBox="0 0 1200 1200" xmlns="http://www.w3.org/2000/svg">
 <path d="m669 725c-60.75 32.75-596 326.75-663.25 206.25-21.5-38.75 19.25-96 85.75-156.25 6.75 19 14.25 38 23 56.75-24.586 19.348-44.426 44.062-58 72.25 39.5 14.5 258.5-46.75 585-228.75l27-15.5c2.9961 9.1719 6.8477 18.047 11.5 26.5 4.543 8.3242 9.9922 16.121 16.25 23.25zm525-455c-21.75-38.75-92-34.5-179-9.75 13 15.922 25.023 32.621 36 50 29.527-10.574 61.047-14.418 92.25-11.25-6 28.5-86.5 110-242.25 217.25 10.406 9.5742 19.262 20.707 26.25 33 2.5 4.5 4 9 6 13.5 149.5-103.75 298.25-227 261-294zm-1019 555c152.48-52.262 299.5-119.24 439-200 17.5-9.5 34-19 50-28.5 5.6602-41.449 29.492-78.223 65.023-100.31 35.527-22.09 79.051-27.199 118.73-13.938 58.188-38.418 114.11-80.152 167.5-125-65.562-104.45-168.7-179.77-288.16-210.42-119.45-30.648-246.11-14.297-353.86 45.688-107.75 59.98-188.38 159.02-225.27 276.7-36.883 117.68-27.207 245.02 27.035 355.78zm770-201.75c-2.0469 46.633-27.117 89.203-66.906 113.61-39.789 24.402-89.102 27.453-131.59 8.1406l-50 28c-130.44 75.41-266.61 140.45-407.25 194.5 74.695 63.273 166.91 102.26 264.34 111.77 97.43 9.5039 195.44-10.93 280.96-58.578s154.46-120.24 197.65-208.09c43.184-87.852 58.551-186.79 44.051-283.6-37.75 30-81.75 61.5-131.5 94.5zm-182.5-81.5c-19.73 10.906-34.32 29.203-40.559 50.867-6.2422 21.668-3.6172 44.922 7.2891 64.652 10.91 19.73 29.211 34.316 50.875 40.555 21.664 6.2383 44.922 3.6133 64.648-7.2969 19.73-10.91 34.316-29.215 40.551-50.879 6.2344-21.664 3.6094-44.922-7.3047-64.648-10.953-19.746-29.312-34.324-51.027-40.516s-45.004-3.4883-64.723 7.5156z"/>
</svg>
