<?xml version="1.0" encoding="UTF-8"?>
<svg width="1200pt" height="1200pt" version="1.1" viewBox="0 0 1200 1200" xmlns="http://www.w3.org/2000/svg">
 <path d="m600 0c327.01 0 594.55 267.54 594.55 594.55v10.902c0 327.01-267.54 594.55-594.55 594.55-327.01 0-594.55-267.54-594.55-594.55v-10.902c0-327.01 267.54-594.55 594.55-594.55zm-325.45 914.32v-16.723c23.203-3.6953 41.164-11.281 53.535-22.727 12.371-11.461 25.363-33.578 38.988-66.234l214.29-522.96h16.871l228.37 525.74c15.469 35.59 28.762 58.629 39.91 69.152 11.148 10.375 30.793 16.098 58.945 17.02v16.723h-250.65v-16.723c28.629-2.457 47.199-7.2578 55.562-14.547 8.3438-7.2734 12.371-16.707 12.371-28.152 0-14.234-6.9609-37.289-20.73-69.316l-156.43-360.34-145.12 355.86c-13.473 32.953-20.27 57.098-20.27 72.418 0 12.684 4.1719 22.742 12.684 30.164 8.3438 7.4219 25.531 12.074 51.207 13.918v16.723h-189.53z" fill-rule="evenodd"/>
</svg>
